<svg xmlns="http://www.w3.org/2000/svg" viewBox="0 0 19.34 21.374" version="1.1">
    <path fill="#fff" fill-opacity="1" stroke="none" stroke-opacity=".306" stroke-width=".065" stroke-miterlimit="4" d="M11.678 17.711l-1.252-2.403v-2.29c0 .95.948 2.144 1.352 2.39.753.46 3.774 1.62 6.443-1.906 2.71-3.58.429-5.486.081-6.48-.738-2.108-.063-3.199.071-3.377.134-.18.797-.396.973.159.138.434-.03.472-.164 1.176-.094.499.697.86.96.198.205-.512.28-1.453-.194-2.13-.585-.839-1.916-.993-2.72.4-.598 1.038.298 4.799.298 4.799l-4.07-4.071v.567l-.296.295s1.813 1.77 4.477 4.477c.628 2.73-5.467 5.427-7.264 1.477L10.349.987l-.359.289-.358-.29-.024 10.006c-1.797 3.95-7.892 1.253-7.264-1.477 2.664-2.706 4.477-4.477 4.477-4.477l-.295-.295v-.567l-4.071 4.07s.896-3.76.297-4.798C1.95 2.055.618 2.21.032 3.048c-.473.677-.398 1.618-.194 2.13.263.662 1.055.3.96-.198-.132-.704-.302-.742-.163-1.176.176-.555.838-.338.973-.16.134.18.809 1.27.07 3.378-.347.994-2.629 2.9.082 6.48 2.669 3.525 5.69 2.366 6.442 1.907.405-.247 1.353-1.442 1.353-2.392v2.291l-1.252 2.403 1.687 3.777zM9.305 7.445L7.083 5.33l-2.999 5.4 3.523-3.286-.109 2.52zm-.063-4.946v4.275l-2.22-2.22V.16zm1.433 4.946l2.223-2.114 2.999 5.4-3.523-3.286.108 2.52zm.063-4.946v4.275l2.221-2.22V.16z" display="inline" stroke-linecap="butt" stroke-linejoin="miter"/>
</svg>
