<svg xmlns="http://www.w3.org/2000/svg" viewBox="0 0 19.34 21.374" version="1.1">
    <path fill="#fff" fill-opacity="1" stroke="none" stroke-opacity="1" stroke-width=".065" stroke-miterlimit="4" d="M17.278 7.858l.374-.809 1.237-.708-.364-3.408-2.985 1.684.143 1.419-.442.774zm-5.526 10.309c-.56 1.159.15 2.453-.399 3.023-.387.401-1.236.082-2.011-.329-.833-.44-1.63-.979-1.45-1.562.253-.821 1.552-.63 2.222-1.902.67-1.275-.008-2.923.509-3.332.517-.409 1.047.068 1.922.502.874.434 1.559.658 1.497 1.3-.064.672-1.692 1.062-2.29 2.3zm3.117-17.034C11.596-.552 9.262-.23 5.512 1.259 2.426 2.483 1.498 4.228 0 4.289c.927 1.233.438 3.108.812 5.914.378 2.831 1.754 6.004 5.43 7.978 0 0-.031-3.7 1.892-5.22 2.694-2.128 4.259-1.3 4.259-1.3.055.239.084.72-.211.983-.446.397-.891.173-.688.788.13.396 2.068 1.482 2.798 1.337.606-.12-.221-1.157.492-2.052.397-.093.825.163 1.115.438l.564 1.207 2.877-.194-1.404-2.394-1.4.244-1.045-.574 1.07-2.08c.417.072 1.017.396 1.232-.003.14-.26.057-.497-.335-.713-1.464-.81-1.547-.823-2.562-1.35-.644-.335-1.064-.33-1.204-.014-.154.35.735 1.011.735 1.011l-.944 1.83s-2.079-1.559-1.53-4.567c.55-3.008 2.916-4.426 2.916-4.426zM11.047 3.04l-.064.731s-.964.22-1.432.378c-.467.158-1.372.567-1.372.567l-.05-1.822s.844-.092 1.505-.067c.662.024 1.413.213 1.413.213zm-4.372.468l.188 1.622C5.39 5.838 5.11 6.28 4.816 6.615c-.045.35-.269.814-.112 2.89l-1.423.714c.001.036-.239-1.026-.288-2.392-.05-1.365.169-2.033.169-2.033s.485-.68 1.59-1.367c1.105-.687 1.923-.92 1.923-.92zm3.72 2.121c-.229 2.725 1.351 4.583 1.351 4.583-1.863.01-3.058.376-4.487 1.5-1.055-1.339-.86-3.587-.86-3.587l2.08 1.071.602.896c.785.033 1.734-.37 1.734-.37s-.127-.864-.696-1.604l-1.033-.025-2.048-1.054c1.369-1.473 3.357-1.41 3.357-1.41zm-6.62 5.862l1.522-.862s.038.708.29 1.441c.251.734.594 1.357.594 1.357l-.597.492s-.644-.532-1.046-1.138c-.403-.606-.764-1.29-.764-1.29z" display="inline" stroke-linecap="butt" stroke-linejoin="miter"/>
</svg>
