<svg xmlns="http://www.w3.org/2000/svg" viewBox="0 0 18.261 16.481" version="1.1">
    <path fill="#fff" fill-opacity="1" stroke="#000" stroke-opacity="1" stroke-width="0" stroke-miterlimit="4" d="M5.182 11.933c-2.15-.3-3.653-.662-3.653-.662l-.483-1.151s2.033.539 3.898.77a21.81 21.81 0 0 0 3.496.1l.508-.242.507.242a21.81 21.81 0 0 0 3.497-.1c1.865-.231 3.997-.77 3.997-.77l-.565 1.077s-1.487.436-3.637.736-3.604.402-3.8.4c-.194 0-1.616-.1-3.765-.4zm3.59-9.8S6.65 3.05 5.606 3.342c-1.045.293-2.944.464-2.944.464s-.236 1.08-.892 2.284C1.114 7.294 0 8.39 0 8.39s3.263.29 5.427-.818c2.164-1.108.987-3.208.41-2.724-.338.283-.208.768-.281 1.037-.147.54-.291.752-.978.719-1.512-.072.173-2.928 2.118-2.327 1.753.541.999 2.165.464 2.698-.397.395-1.258 1.186-2.976 1.505-1.717.318-3.912.343-3.912.343l.12.509c.54.255 1.957.722 3.848.986 1.89.265 4.064.255 4.064.255l.468-.23zm.369.017s2.122.916 3.167 1.208c1.044.293 2.943.464 2.943.464s.237 1.079.892 2.284c.656 1.205 1.77 2.3 1.77 2.3s-3.262.29-5.427-.818c-2.164-1.108-.987-3.208-.41-2.724.338.283.208.768.281 1.037.147.54.292.752.978.719 1.512-.072-.172-2.928-2.117-2.327-1.754.541-1 2.165-.465 2.698.397.395 1.258 1.186 2.976 1.504 1.718.32 3.913.344 3.913.344l-.12.509c-.54.255-1.958.722-3.848.986-1.891.264-4.065.255-4.065.255l-.468-.23zm2.887 11.924c.027 1.876-.351 2.323-1.702 2.402-1.351.08-1.127-.832-1.139-2.118zm3.244-.38c-.026.035 0 .89-.18 1.382-.179.49-.837.786-1.42.875-.796.121-1.12-.426-1.126-.798-.01-.6-.008-1.142-.008-1.142zm-9.472.38c-.027 1.876.351 2.323 1.702 2.402 1.351.08 1.127-.832 1.139-2.118zm-.046-1.018l2.936.315-.016.737-2.93-.314zm-3.198.639s.063.738.356 1.38c.293.643.66.787 1.245.876.795.121 1.119-.426 1.125-.798.01-.6.008-1.142.008-1.142zm-.349-1.201l3.105.52-.016.746-2.797-.403zm9.905.562l-2.936.315.017.737 2.93-.314zm3.245-.348l-2.803.324.017.728 2.76-.314zm2.342-2.745l.562.87-.562 2.586-1.919 1.19.05-1.918.808-.386zM6.026 2.56c-1.396.472-2.954.646-2.954.646l.356-1.045s1.498-.412 2.704-.854C7.34.865 8.947 0 8.947 0s1.608.865 2.814 1.307c1.207.442 2.704.854 2.704.854l.357 1.045s-1.559-.174-2.955-.646c-1.395-.472-2.92-1.229-2.92-1.229s-1.525.757-2.92 1.229z" display="inline" stroke-linecap="butt" stroke-linejoin="miter"/>
</svg>
