<svg xmlns="http://www.w3.org/2000/svg" viewBox="0 0 13.853 13.916" version="1.1">
    <path fill="#fff" fill-opacity="1" stroke="none" stroke-opacity="1" stroke-width=".065" stroke-miterlimit="4" d="M2.269 3.378s1.807-2.33 4.664-2.357c2.856-.028 4.726 2.357 4.726 2.357h1.362S10.989 0 6.933 0C2.876 0 .895 3.378.895 3.378zm8.684.863c.797 1.6 1.234 2.061 2.9 2.061-.604-.699-1.108-1.446-1.198-2.395h-1.361c-1.692-2.34-4.361-2.193-4.361-2.193s-2.67-.147-4.362 2.193h-1.36C1.12 4.857.615 5.603.012 6.302c1.666 0 2.102-.46 2.899-2.06 1.38-2.229 4.02-2.124 4.02-2.124s2.641-.105 4.021 2.123zm-8.697 6.297s1.807 2.329 4.664 2.357c2.857.028 4.727-2.357 4.727-2.357h1.361s-2.031 3.378-6.088 3.378S.882 10.538.882 10.538zm8.685-.864c.796-1.6 1.233-2.06 2.899-2.06-.603.698-1.107 1.445-1.197 2.394H11.28c-1.692 2.34-4.361 2.193-4.361 2.193s-2.67.147-4.361-2.193H1.197C1.107 9.06.603 8.312 0 7.613c1.666 0 2.103.461 2.9 2.061 1.38 2.228 4.02 2.124 4.02 2.124s2.64.104 4.02-2.124zM8.937 6.313c.4-.348.637-.912.716-1.684.665.833.907 1.657.821 2.698a2.857 2.857 0 0 1-1.695.61c.288-.57.314-1.072.158-1.624zM4.903 7.584c-.394.353-.623.92-.69 1.694-.679-.824-.932-1.643-.862-2.686a2.857 2.857 0 0 1 1.686-.635c-.28.574-.298 1.077-.134 1.627zm3.553.827c.497.182 1.106.116 1.82-.19-.407.987-1.01 1.597-1.963 2.027A2.857 2.857 0 0 1 6.958 9.06c.637-.025 1.09-.245 1.498-.65zM5.388 5.5c-.5-.174-1.107-.1-1.816.216.392-.992.986-1.61 1.932-2.054.561.213 1.087.677 1.373 1.167-.638.033-1.087.26-1.489.67zm1.05 3.513c.095.52.459 1.013 1.082 1.475-1.056.146-1.888-.066-2.74-.672-.089-.594.056-1.28.342-1.77.343.54.761.819 1.316.967zm.968-4.118c-.102-.52-.473-1.006-1.103-1.46 1.054-.161 1.888.04 2.749.633a2.857 2.857 0 0 1-.316 1.773c-.35-.533-.773-.806-1.33-.946z" opacity="1" display="inline" stroke-linecap="butt" stroke-linejoin="miter"/>
</svg>
