<svg xmlns="http://www.w3.org/2000/svg" viewBox="0 0 22.334 21.232" version="1.1">
    <path fill="#fff" fill-opacity="1" stroke="#000" stroke-opacity="1" stroke-width=".065" stroke-miterlimit="4" d="M11.167 6.908c-1.192 0-3.215-.304-3.091-1.148.181.406 1.443.695 3.091.695 1.649 0 2.91-.289 3.092-.695.123.844-1.9 1.148-3.092 1.148zm0-6.867c-.832.642-2.205 1.977-2.079 2.173.245.381.755.432 1.3.473V4.41c-.825-.184-1.517-.952-2.186-1.996C5.563 4.29 3.052 6.711.005 7.187c.468.036 1.186.194 1.496.618 1.832 2.509 2.599 9.347 2.6 9.346l7.066 4.044 7.067-4.044c.001 0 .768-6.837 2.6-9.346.31-.424 1.027-.582 1.495-.618-3.047-.476-5.558-2.897-8.197-4.772-.668 1.044-1.36 1.812-2.185 1.996V2.687c.545-.041 1.055-.092 1.3-.473.125-.196-1.248-1.53-2.08-2.173zM7.898 4.043c.28.093.515.266.62.667-.815.264-1.394.712-1.813 1.286 4.84 4.63 2.812 8.76 1.766 10.09l2.696 2.281 2.697-2.28c-1.046-1.331-3.074-5.462 1.765-10.091-.418-.574-.997-1.022-1.812-1.286.105-.4.34-.574.62-.667 1.087.682 1.568 1.313 2.151 1.953-4.906 5.297-2.617 8.962-2.116 9.833 0 0 .338.366.771.129.434-.237.351-.725.351-.725-2.196-3.86.239-6.078 1.964-8.547.392-.183.56.08.69.42-.953.813-1.678 1.836-2.279 3.002.87-.615 1.756-1.48 2.466-1.517-.867 2.658-1.327 5.12-1.847 7.612l-5.42 2.924-5.421-2.924c-.52-2.491-.98-4.954-1.848-7.612.71.036 1.598.902 2.466 1.517-.6-1.166-1.326-2.189-2.279-3.002.13-.34.299-.603.69-.42 1.726 2.469 4.16 4.686 1.965 8.547 0 0-.083.488.35.725.434.237.772-.129.772-.129.5-.87 2.79-4.536-2.116-9.833.583-.64 1.063-1.271 2.151-1.953z" stroke-linecap="butt" stroke-linejoin="miter" display="inline"/>
</svg>
