<svg xmlns="http://www.w3.org/2000/svg" viewBox="0 0 20.991 20.808" version="1.1">
    <path fill="#fff" fill-opacity="1" stroke="none" stroke-opacity="1" stroke-width=".246" stroke-miterlimit="4" d="M8.119.001a2.49 2.49 0 0 0-.386.02C5.578.29 5.24 2.584 5.566 3.442c.327.859 1.288.986 1.836.397s.232-1.588-.678-1.868c.505-.498 1.71-1.017 2.166.181.334.877-.48 1.97-1.62 3.076C6.13 6.335 3.604 8.221 2.21 7c-.955-.837.214-2.717 1.32-2.469-.323.71.041 1.554.513 1.786.472.232 1.563.3 1.885-.53.769-1.976-1.57-2.63-2.817-2.498C1.011 3.51.093 5.279.01 6.386c-.139 1.841 1.328 3.866 3.055 5.63l3.993 3.972c-1.69 1.234-2.265 1.806-3.677 2.292-1.432.494-3.46.136-3.362 1.473.118 1.6 2.491 1.172 4.346.091 1.855-1.08 3.699-2.827 3.699-2.827.244 0 .98 1.16.687 1.72 0 0-.784.06-1.003.338-.175.222-.27.613-.105.842.15.208.489.449 1.543.187 1.055-.261 1.31-1.029 1.31-1.029s.255.768 1.31 1.03c1.055.26 1.393.02 1.543-.188.166-.23.07-.62-.105-.842-.22-.278-1.003-.338-1.003-.338-.293-.56.443-1.72.687-1.72 0 0 1.845 1.747 3.7 2.827 1.854 1.081 4.227 1.508 4.345-.09.099-1.338-1.93-.98-3.362-1.474-1.412-.486-1.987-1.058-3.677-2.292l3.993-3.972c1.727-1.764 3.194-3.789 3.055-5.63-.083-1.107-1.002-2.876-3.102-3.098-1.248-.132-3.585.522-2.817 2.499.323.828 1.414.761 1.886.529.471-.232.835-1.076.512-1.786 1.106-.248 2.276 1.632 1.321 2.469-1.394 1.222-3.92-.664-5.06-1.77-1.14-1.105-1.955-2.2-1.62-3.076.456-1.198 1.66-.679 2.166-.181-.91.28-1.226 1.28-.678 1.868.548.589 1.509.462 1.835-.397.327-.858-.012-3.152-2.166-3.423-2.154-.27-2.763 2.266-2.763 2.266S9.961.056 8.12 0zm2.36 3.398c.465 1.586 1.74 1.407 1.414 3.453.83-.416 4.724.073 5.97 2.538.585 1.157-4.523 5.24-4.745 5.726-.401-.058-.672-.291-.782-.739 0 0 1.328-.242 1.571-.836.379-.925-.76-.94-.914-1.661 2.614-.273 2.464-2.387 4.12-2.935 0 0-1.87-2.701-4.893.141-.09.084-.578.238-.814.076-.235-.163-.03-.79-.03-.79.462-.076.782-.07.982-.108.2-.038.28-.117.261-.362-.077-1.002-1.77-.611-2.165.483-.343-1.126-2.049-1.472-2.114-.483-.032.49.333.3 1.256.45 0 0 .192.647-.043.81-.235.162-.724.008-.814-.076-3.023-2.842-4.892-.141-4.892-.141 1.656.548 1.505 2.662 4.12 2.935-.155.721-1.293.736-.914 1.66.243.595 1.57.837 1.57.837-.11.448-.38.68-.782.74-.221-.487-5.33-4.57-4.744-5.727 1.246-2.465 5.14-2.954 5.97-2.538-.327-2.046.95-1.867 1.413-3.453zm0 10.153c.47.913 1.088 1.618 1.672 2.37l-.399.335c-.414-.37-.792-.812-1.272-1.05-.48.238-.858.68-1.272 1.05l-.4-.334c.584-.753 1.202-1.458 1.672-2.371z" stroke-linecap="butt" stroke-linejoin="miter" display="inline"/>
</svg>
