<svg xmlns="http://www.w3.org/2000/svg" viewBox="0 0 17.243 17.16" version="1.1">
    <path fill="#fff" fill-opacity="1" stroke="#ffe60c" stroke-opacity="1" stroke-width="0" stroke-miterlimit="4" d="M16.414 0c-.773 2.104-1.951 3.69-3.98 4.098-.236 4.325-5.873 2.076-3.282.365-.433-.544-.939-.901-1.604-.273.56.696.373 1.308.016 1.853-.192-2.761-1.942-2.63-3.217-2.75.042-.668-.432-1.103-.921-1.3 4.864.276 6.317 2.324 6.342 3.685C11.162 2.371 3.511.218 0 .871c2.104.773 3.69 1.951 4.099 3.98 4.324.236 2.075 5.873.337 3.22-.571.37-.928.876-.3 1.541.657-.45 1.28-.32 1.852-.016-2.76.192-2.63 1.942-2.75 3.217-.668-.041-1.102.432-1.3.922.277-4.865 2.325-6.317 3.686-6.343C2.317 5.998.164 13.65.817 17.16c.773-2.104 1.951-3.69 3.98-4.099.236-4.324 5.873-2.075 3.288-.321.439.587.945.945 1.61.317-.449-.658-.286-1.282-.015-1.853.191 2.76 1.941 2.63 3.216 2.75-.041.668.432 1.102.922 1.3-4.865-.277-6.317-2.324-6.343-3.686-1.393 3.308 6.258 5.46 9.768 4.807-2.104-.773-3.69-1.95-4.099-3.98-4.324-.235-2.075-5.873-.343-3.262.565-.413.922-.92.294-1.585-.628.457-1.244.412-1.852.016 2.76-.192 2.63-1.942 2.75-3.217.668.041 1.102-.432 1.3-.921-.277 4.864-2.325 6.317-3.686 6.342 3.307 1.394 5.46-6.257 4.807-9.768zM8.64 7.517a1.055 1.055 0 1 1 0 2.11 1.055 1.055 0 0 1 0-2.11z" stroke-linecap="butt" stroke-linejoin="miter" display="inline"/>
</svg>
