<svg xmlns="http://www.w3.org/2000/svg" viewBox="0 0 19.291 20.648" version="1.1">
    <path fill="#fff" fill-opacity="1" stroke="none" stroke-opacity="1" stroke-width=".06" stroke-miterlimit="4" d="M10.887 6.143a1.242 1.242 0 0 1-1.241 1.241 1.242 1.242 0 0 1-1.242-1.241A1.242 1.242 0 0 1 9.646 4.9a1.242 1.242 0 0 1 1.241 1.242zM5.28 0v1.8c5.46 2.061-3.103 6.592-3.675 0H0v8.71h1.604c.662-2.72 3.205-4.08 5.353-1.9.03 2.97.199 6.038-1.209 8.535.794 1.513 1.683 2.96 3.898 3.503 2.215-.543 3.104-1.99 3.897-3.503-1.408-2.497-1.24-5.566-1.208-8.535 2.148-2.18 4.69-.82 5.353 1.9h1.603V1.8h-1.603c-.572 6.592-9.136 2.061-3.676 0V0H9.646zm4.365 2.345c.241 0 .481.218.481.656.03.457-.017 1.286 0 1.72.775.255 1.423.692 1.886 1.422-.445.744-1.105 1.2-1.886 1.452v8.963c0 .935-.959.935-.959 0V7.595c-.78-.251-1.44-.708-1.885-1.452.462-.73 1.11-1.167 1.885-1.421.017-.435-.04-1.264-.01-1.721.005-.438.248-.656.488-.656z" opacity="1" display="inline"/>
</svg>
