<svg xmlns="http://www.w3.org/2000/svg" viewBox="0 0 24.913 19.707" version="1.1">
    <path fill="#fff" fill-opacity="1" stroke="#000" stroke-opacity="1" stroke-width="0" stroke-miterlimit="4" d="M3.514 9.395c-.49-1-.696-1.587-.794-3.035L0 5.566zm6.54-5.026c-3.703-2.194-5.48-.29-5.086 2.502.35 2.466 3.022 5.918 5.085 7.868-2.812-1.269-5.574-2.547-8.54-4.698 1.314 2.675 3.822 5.518 6.151 8.115-.233-.968-.694-2.144-.734-3.536 2.177.224 3.473 1.51 3.648 2.416.187.97-.816 1.228-1.02.523-.174-.604.054-1.239.054-1.239-1.374.146-1.688 2.976-.093 3.342 1.176.27 2.217-.722 2.455-1.686.815-3.295-3.016-5.864-4.735-9.015-1.57-2.878-1.584-5.272 2.814-3.35zm0-1.62c-.982-.942-2.07-1.009-3.17-.968L7.035 0 4.82 2.903l-1.407-1.9C2.75 7.616 2.277 9.752 9.085 14.036c-7.048-6.19-5.2-13.589.968-10.115V2.75M21.4 9.395c.49-1 .696-1.587.794-3.035l2.72-.794zm-6.54-5.026c3.703-2.194 5.48-.29 5.086 2.502-.35 2.466-3.022 5.918-5.085 7.868 2.812-1.269 5.574-2.547 8.54-4.698-1.314 2.675-3.822 5.518-6.151 8.115.233-.968.694-2.144.734-3.536-2.177.224-3.473 1.51-3.648 2.416-.187.97.816 1.228 1.02.523.174-.604-.054-1.239-.054-1.239 1.374.146 1.688 2.976.093 3.342-1.176.27-2.217-.722-2.455-1.686-.815-3.295 3.016-5.864 4.735-9.015 1.57-2.878 1.584-5.272-2.814-3.35zm0-1.62c.982-.942 2.07-1.009 3.17-.968L17.878 0l2.214 2.903 1.407-1.9c.663 6.613 1.136 8.749-5.672 13.033 7.048-6.19 5.2-13.589-.968-10.115V2.75M10.307.733V6.06c.335.016.514.217.632.464-2.097 3.225-1.25 5.41.388 7.619-.179-1.705-.195-3.605 1.135-5.254 1.33 1.649 1.313 3.549 1.134 5.254 1.638-2.21 2.486-4.394.389-7.619.118-.247.297-.448.632-.464V.733l-2.155 3.622zm2.155 5.556a.427.427 0 0 1 .427.428.427.427 0 0 1-.427.427.427.427 0 0 1-.428-.427.427.427 0 0 1 .428-.428zm-.813 1.234c.264-.035.533.244.302.553-.841 1.123-1.183 1.694-1.334 2.697-.067-1.066.027-2.066.789-3.099a.36.36 0 0 1 .243-.15zm1.622 0a.36.36 0 0 1 .243.151c.762 1.033.856 2.033.789 3.1-.15-1.004-.493-1.575-1.333-2.698-.232-.309.037-.588.3-.553z" opacity="1" stroke-linejoin="miter" display="inline" stroke-linecap="butt"/>
</svg>
