<svg xmlns="http://www.w3.org/2000/svg" viewBox="0 0 21.645 23.457" version="1.1">
    <path fill="#fff" fill-opacity="1" stroke="#000" stroke-opacity="1" stroke-width="0" stroke-miterlimit="4" d="M10.679 0c-.553 1.804-2.488 3.665-4.714 5.653 2.7 2.54 1.78 5.93-.74 8.999l1.965 1.04h1.547l1.33-1.346h.612zm1.161 18.698v2.07c1.248.747-1.018 2.69-1.018 2.69s-2.266-1.943-1.018-2.69v-2.07h1.018zm-9.056-7.71c.777.774 1.549 1.55 1.934 2.458-1.103 1.311-2.914 1.95-4.718 2.449 2.7.396 4.82 1.644 6.552 3.203 0 0 2.377-3.57 3.252-.656h2.036c.875-2.914 3.253.656 3.253.656 1.73-1.559 3.852-2.807 6.552-3.203-1.805-.5-3.615-1.138-4.718-2.45.385-.908 1.157-1.683 1.933-2.457H17.42l-2.065 1.508c.35.643.809 1.354 1.558 2.243l-2.328 1.287H12.74l-1.274-1.321h-1.29l-1.274 1.32H7.06L4.732 14.74c.75-.889 1.209-1.6 1.559-2.243l-2.065-1.508zm8.038 4.397a1.213 1.213 0 1 1 0 2.427 1.213 1.213 0 0 1 0-2.427zM10.965 0c.554 1.804 2.488 3.665 4.715 5.653-2.7 2.54-1.781 5.93.74 8.999l-1.965 1.04h-1.548l-1.33-1.346h-.612z" opacity="1" display="inline" stroke-linecap="butt" stroke-linejoin="miter"/>
</svg>
