<svg xmlns="http://www.w3.org/2000/svg" viewBox="0 0 22.4 22.4" version="1.1">
    <path fill="#fff" fill-opacity="1" stroke="#000" stroke-opacity="1" stroke-width="0" stroke-miterlimit="4" d="M11.21 0l-.868 1.447c-1.97.173-3.77.93-5.232 2.095l-.006-.01-1.99-.076.254 1.877a9.741 9.741 0 0 0-1.913 5.003L0 11.207l1.454.86a9.747 9.747 0 0 0 2.143 5.292l-.076 1.987 1.888-.256a9.74 9.74 0 0 0 4.931 1.863l.867 1.447.856-1.446a9.74 9.74 0 0 0 4.973-1.886l1.877.255-.076-1.989a9.745 9.745 0 0 0 2.124-5.273l1.44-.852-1.44-.862a9.736 9.736 0 0 0-1.615-4.591l.01-.002.267-1.971-1.943.074a9.751 9.751 0 0 0-5.614-2.409zm-.82 2.773c-.4 1.61-1.054 3.04-1.965 4.232-.986-.636-1.898-1.365-2.643-2.302a8.425 8.425 0 0 1 4.608-1.93zm1.634 0a8.432 8.432 0 0 1 4.952 2.231c-.76.964-1.694 1.707-2.706 2.355-1.06-1.259-1.805-2.815-2.246-4.586zM4.755 5.721l.008.001c1.034.539 1.925 1.362 2.758 2.302-1.229 1.194-2.802 2.048-4.75 2.455a8.431 8.431 0 0 1 1.984-4.758zm13.185.347a8.427 8.427 0 0 1 1.702 4.411c-1.774-.37-3.24-1.11-4.416-2.14.821-.925 1.7-1.735 2.714-2.271zm-6.733 1.008a4.125 4.125 0 1 1 0 8.25 4.125 4.125 0 0 1 0-8.25zm-8.435 4.846c1.73.362 3.167 1.076 4.327 2.068-.645 1.007-1.384 1.938-2.34 2.695a8.431 8.431 0 0 1-1.987-4.763zm16.87 0a8.43 8.43 0 0 1-1.967 4.74c-.955-.756-1.694-1.686-2.338-2.69 1.157-.983 2.587-1.69 4.305-2.05zm-5.273 3.015c.93.827 1.744 1.711 2.278 2.736l.002.013a8.426 8.426 0 0 1-4.622 1.943c.455-1.82 1.232-3.414 2.342-4.692zm-6.303.023c1.099 1.274 1.87 2.86 2.321 4.669a8.424 8.424 0 0 1-4.601-1.927v-.005c.535-1.026 1.35-1.91 2.28-2.737zm3.141-7.026A3.267 3.267 0 0 0 7.94 11.2a3.267 3.267 0 0 0 3.267 3.267 3.267 3.267 0 0 0 3.267-3.267 3.267 3.267 0 0 0-3.267-3.267zm0 1.492a1.775 1.775 0 0 1 1.775 1.775 1.775 1.775 0 0 1-1.775 1.775 1.775 1.775 0 0 1-1.775-1.775 1.775 1.775 0 0 1 1.775-1.775z" stroke-linecap="butt" stroke-linejoin="miter"/>
</svg>
