<svg xmlns="http://www.w3.org/2000/svg" viewBox="0 0 29.623 29.623" version="1.1">
    <path fill="#fff" fill-opacity="1" stroke="#000" stroke-opacity="1" stroke-width="0" stroke-miterlimit="4" d="M14.154.002C2.707-.194-3.46 14.062 2.035 21.632l4.149-2.334C3.884 12.832 2.82 4.765 14.154.002zm-4.43 17.256C8 18.724 4.795 21.676 1.178 22.61c-.474 1.23-.436 2.366-.317 3.488.343.47.749.892 1.264 1.408.516.515.939.922 1.408 1.264 1.122.12 2.259.157 3.488-.316.935-3.618 3.871-6.803 5.353-8.547-.46-.181-1.525-1.125-1.525-1.125s-.945-1.07-1.125-1.524zm-7.2 6.899c.753 1.302 1.592 2.198 2.958 2.958-1.72-.26-2.715-1.29-2.958-2.958zm10.222-4.653s1.782-2.42 1.602-4.221c-1.8-.18-4.225 1.607-4.225 1.607.13.418 1.073 1.576 1.073 1.576s1.127.907 1.55 1.038zM29.62 15.47c.197 11.447-14.06 17.616-21.63 12.12l2.335-4.15c6.466 2.3 14.532 3.365 19.295-7.97zM26.808 2.823C20.562 2.8 16.433 5.15 13.067 8.355c8.778-.163-7.909 8.805-.954-1.216-4.327.932-7.795 2.593-5.864 8.773.417-1.676.464-3.882 1.588-4.366-.4.748-.585 1.476-.033 2.138 2.141-.114 2.784.846 2.435 2.518.91-.472 2.413-1.674 4.484-1.294.38 2.071-.821 3.574-1.293 4.485 1.672-.35 2.632.293 2.518 2.435.661.551 1.39.367 2.137-.033-.484 1.124-2.69 1.17-4.366 1.587 6.18 1.931 7.841-1.536 8.774-5.863-10.022 6.954-1.053-9.732-1.217-.954 3.205-3.367 5.556-7.496 5.532-13.742zM23.932 5.7c.029 2.335-1.006 4.464-2.673 6.47-1.277-2.157-2.886-.702-4.226.429 1.13-1.34 2.586-2.95.428-4.226 2.007-1.667 4.135-2.703 6.47-2.673z" stroke-linecap="butt" stroke-linejoin="miter"/>
</svg>
