<svg xmlns="http://www.w3.org/2000/svg" viewBox="0 0 20.844 20.034" version="1.1">
    <path fill="#fff" fill-opacity="1" stroke="#000" stroke-opacity="1" stroke-width="0" stroke-miterlimit="4" d="M16.296 5.83c.607.088.43.7.528 1.109.507 2.094 7.915-3.388 1.262-1.58l-.9-.9v-.89c.494.128.947.06 1.401 0l2.2-2.198V0H18.78L15.98 2.23c-.43 1.016-1.292 1.131-3.027-.573 1.616-3.228-3.602.395-1.463 1.176.626.23 1.475.3.941 1.105C9.636 7.04 5.933 9.23 2.966 11.02c1.64.718 3.232 1.726 4.71 2.864.738-.418 1.533-.96 2.4-1.657-.481-.38-.992-.838-1.468-1.25l5.694-4.591c.73-.031 1.386.094 1.994-.556zm-.735-1.289a1.023 1.023 0 1 1-2.045 0 1.023 1.023 0 0 1 2.045 0zm-4.877 11.996c.819.838 1.606 1.733 2.358 2.677 1.624.627 3.385.923 5.159.788a7.66 7.66 0 0 0-1.807-4.354c-.765.005-1.926-.49-3.261-1.3a32.149 32.149 0 0 0-2.45 2.189zm2.435-8.54l4.73 3.023c-3.803 1.665-7.192 4.577-10.076 8.194-1.624.627-3.385.923-5.159.788a7.66 7.66 0 0 1 1.806-4.354c1.569.01 4.799-2.08 7.787-4.672l-1.46-1.15zM.058 0v1.371L2.257 3.57c.454.058.907.127 1.4 0v.89l-.899.9c-6.653-1.81.755 3.673 1.262 1.579.099-.41-.08-1.02.528-1.109.608.65 1.11.576 1.77.614L7.67 7.471c.806-.59 1.621-1.183 2.373-1.882-.622-.624-1.52-1.262-1.803-1.886-.163-.596.506-.631 1.115-.87 2.12-.83-3.08-4.404-1.463-1.176-1.735 1.704-2.597 1.589-3.027.573L2.063 0zm6.248 3.518a1.023 1.023 0 1 1 0 2.046 1.023 1.023 0 0 1 0-2.046z" stroke-linecap="butt" stroke-linejoin="miter" display="inline"/>
</svg>
